<svg preserveAspectRatio="none" width="100%" height="100%" overflow="visible" style="display: block;" viewBox="0 0 16 16" fill="none" xmlns="http://www.w3.org/2000/svg">
<g id="Square-Arrow-Right-Up--Streamline-Solar-Ar">
<path id="Vector" d="M6.125 9.875L9.875 6.125M9.875 8.9375V6.125H7.0625" stroke="var(--stroke-0, white)" style="stroke:white;stroke-opacity:1;" stroke-linecap="round" stroke-linejoin="round"/>
<path id="Vector_2" d="M1.75 8C1.75 5.05372 1.75 3.58058 2.66529 2.66529C3.58058 1.75 5.05372 1.75 8 1.75C10.9462 1.75 12.4194 1.75 13.3347 2.66529C14.25 3.58058 14.25 5.05372 14.25 8C14.25 10.9462 14.25 12.4194 13.3347 13.3347C12.4194 14.25 10.9462 14.25 8 14.25C5.05372 14.25 3.58058 14.25 2.66529 13.3347C1.75 12.4194 1.75 10.9462 1.75 8Z" stroke="var(--stroke-0, white)" style="stroke:white;stroke-opacity:1;"/>
</g>
</svg>
