<svg preserveAspectRatio="none" width="100%" height="100%" overflow="visible" style="display: block;" viewBox="0 0 20 20" fill="none" xmlns="http://www.w3.org/2000/svg">
<g id="logos:whatsapp-icon" clip-path="url(#clip0_0_4)">
<path id="Vector" d="M0.426172 9.8809C0.425703 11.5613 0.868203 13.2021 1.70961 14.6483L0.345703 19.5895L5.44195 18.2636C6.85151 19.025 8.43081 19.424 10.0357 19.4241H10.0399C15.338 19.4241 19.6507 15.1463 19.653 9.88842C19.654 7.34059 18.6549 4.94477 16.8398 3.14229C15.0249 1.33997 12.6113 0.346866 10.0395 0.345703C4.74086 0.345703 0.428438 4.62322 0.42625 9.8809" fill="url(#paint0_linear_0_4)"/>
<g id="Vector_2">
</g>
<path id="Vector_3" d="M7.55352 5.74874C7.36711 5.33765 7.17094 5.32936 6.99367 5.32215C6.84852 5.31595 6.68258 5.31641 6.5168 5.31641C6.35086 5.31641 6.08125 5.37835 5.85336 5.62525C5.62523 5.87238 4.98242 6.46959 4.98242 7.68424C4.98242 8.89889 5.87406 10.0728 5.99836 10.2377C6.12281 10.4023 7.71969 12.9747 10.2487 13.9643C12.3506 14.7867 12.7784 14.6232 13.2345 14.5819C13.6908 14.5408 14.7067 13.9849 14.914 13.4084C15.1214 12.8319 15.1214 12.3378 15.0592 12.2346C14.997 12.1317 14.8311 12.0699 14.5823 11.9465C14.3334 11.8231 13.1101 11.2257 12.882 11.1433C12.6539 11.061 12.488 11.0199 12.3221 11.2671C12.1562 11.5139 11.6797 12.0699 11.5345 12.2346C11.3894 12.3996 11.2441 12.4201 10.9954 12.2966C10.7464 12.1728 9.94508 11.9124 8.99438 11.0714C8.25469 10.417 7.75531 9.60882 7.61016 9.36161C7.465 9.11479 7.59461 8.98099 7.71938 8.85796C7.83117 8.74734 7.96828 8.56967 8.09281 8.42556C8.21687 8.28138 8.25828 8.17851 8.34125 8.01386C8.4243 7.84905 8.38273 7.70486 8.32063 7.58138C8.25828 7.45789 7.77477 6.23688 7.55352 5.74874Z" fill="var(--fill-0, white)" style="fill:white;fill-opacity:1;"/>
</g>
<defs>
<linearGradient id="paint0_linear_0_4" x1="9.99934" y1="19.5895" x2="9.99934" y2="0.345703" gradientUnits="userSpaceOnUse">
<stop stop-color="#1FAF38" style="stop-color:#1FAF38;stop-color:color(display-p3 0.1216 0.6863 0.2196);stop-opacity:1;"/>
<stop offset="1" stop-color="#60D669" style="stop-color:#60D669;stop-color:color(display-p3 0.3765 0.8392 0.4118);stop-opacity:1;"/>
</linearGradient>
<clipPath id="clip0_0_4">
<rect width="20" height="20" fill="white" style="fill:white;fill-opacity:1;"/>
</clipPath>
</defs>
</svg>
